<?xml version="1.0" standalone="no"?>
<!DOCTYPE svg PUBLIC "-//W3C//DTD SVG 1.1//EN" "http://www.w3.org/Graphics/SVG/1.1/DTD/svg11.dtd" >
<svg xmlns="http://www.w3.org/2000/svg" xmlns:xlink="http://www.w3.org/1999/xlink" version="1.1">
<metadata>
Created by FontForge 20170731 at Tue Apr 12 11:11:55 2016
 By Aleksey,,,
Copyright (c) 2016 by Maulana Creative. All rights reserved.
</metadata>
<defs>
<font id="PratiwiSansTypeface" horiz-adv-x="550" >
  <font-face 
    font-family="Pratiwi Sans Typeface"
    font-weight="400"
    font-stretch="normal"
    units-per-em="1000"
    panose-1="0 0 0 0 0 0 0 0 0 0"
    ascent="750"
    descent="-250"
    x-height="620"
    cap-height="620"
    bbox="57 -84 1092 646"
    underline-thickness="50"
    underline-position="-150"
    unicode-range="U+000D-2022"
  />
<missing-glyph horiz-adv-x="269" 
 />
    <glyph glyph-name=".notdef" horiz-adv-x="269" 
 />
    <glyph glyph-name=".null" horiz-adv-x="0" 
 />
    <glyph glyph-name="nonmarkingreturn" unicode="&#xd;" horiz-adv-x="269" 
 />
    <glyph glyph-name="NULL" horiz-adv-x="0" 
 />
    <glyph glyph-name="NULL" horiz-adv-x="0" 
 />
    <glyph glyph-name="space" unicode=" " horiz-adv-x="370" 
 />
    <glyph glyph-name="exclam" unicode="!" horiz-adv-x="450" 
d="M268 123v-123h-80v123h80zM143 621h169l-44 -448h-80z" />
    <glyph glyph-name="quotedbl" unicode="&#x22;" horiz-adv-x="438" 
d="M91 621h113v-76q0 -55 -28 -86q-29 -32 -83 -41v37q41 12 53 40q8 14 7 31h-62v95zM356 621v-76q0 -27 -7.5 -47.5t-21.5 -37.5q-27 -33 -83 -42v37q39 12 56 41q4 12 4 30h-62v95h114z" />
    <glyph glyph-name="numbersign" unicode="#" horiz-adv-x="697" 
d="M530 537l-21 -72h92l-20 -69h-92l-36 -123h92l-20 -69h-92l-22 -73h-89l20 73h-74l-21 -73h-91l21 73h-92l20 69h92l36 123h-92l20 69h93l21 72h90l-21 -72h74l21 72h91zM363 273l35 123h-74l-36 -123h75z" />
    <glyph glyph-name="dollar" unicode="$" horiz-adv-x="658" 
d="M510 311q66 -44 66 -123q0 -104 -90 -153q-28 -13 -61 -22t-72 -11v-28h-45v27q-49 5 -85 14t-59 21q-22 13 -38.5 30t-26.5 39l120 58q7 -25 13 -34q20 -27 76 -36v176l-40 11q-48 11 -80 28t-52 37q-39 42 -39 101q0 36 14 69q17 32 43 54q17 16 36 25.5t41 16.5
q25 7 77 10v25h45v-26q42 -2 73 -11t54 -22q18 -11 33 -24t26 -30l-111 -54q-2 10 -7 16q-18 31 -68 33v-157q59 -17 98.5 -32t58.5 -28zM308 528q-42 0 -64 -19q-11 -11 -16 -22t-5 -28q0 -35 32 -55q8 -7 21.5 -12t31.5 -10v146zM410 109q31 22 31 66q0 35 -30 57
q-8 6 -22.5 12t-35.5 13v-163q39 6 57 15z" />
    <glyph glyph-name="percent" unicode="%" horiz-adv-x="561" 
d="M297 509q0 -45 -27 -73q-32 -30 -73 -30q-40 0 -70 30q-30 29 -30 73q0 20 7 38.5t23 32.5q30 30 70 30q42 0 72 -30q15 -14 21.5 -32.5t6.5 -38.5zM228 478q12 9 12 31q0 20 -12 29q-10 14 -31 14q-18 0 -31 -14q-12 -12 -12 -29q0 -19 12 -31q13 -13 31 -13q21 0 31 13
zM454 125q0 -43 -30 -71q-14 -16 -32.5 -23.5t-38.5 -7.5q-44 0 -72 31q-29 28 -29 71q0 21 7 39t22 32q28 31 72 31q20 0 38.5 -7.5t32.5 -23.5q30 -27 30 -71zM385 95q12 15 12 30q0 16 -12 31q-13 12 -32 12t-31 -12t-12 -31q0 -18 12 -30q7 -8 15 -10t16 -2q9 0 16.5 2
t15.5 10zM444 621l-296 -621h-57l298 621h55z" />
    <glyph glyph-name="ampersand" unicode="&#x26;" horiz-adv-x="648" 
d="M561 75l-91 -58l-38 50q-31 -30 -56 -42q-44 -25 -106 -25q-90 0 -140 54q-51 55 -51 122q0 53 26 94q13 19 34.5 38.5t52.5 38.5l11 8q-26 31 -39 61q-8 15 -11 31t-3 33q0 68 44 103q41 38 112 38q64 0 105 -38q42 -39 42 -98q0 -27 -6.5 -48.5t-18.5 -38.5
q-13 -17 -30.5 -32.5t-41.5 -29.5l83 -106q7 11 13 22t10 24q3 12 5 23t3 25l89 -63q-5 -23 -15 -43q-12 -34 -41 -71zM275 525q-21 -12 -21 -41q0 -16 12 -35q4 -5 11.5 -16t20.5 -26q12 9 21.5 16t14.5 13q21 22 21 49q0 18 -13 34q-11 14 -38 14q-16 0 -29 -8zM332 112
q12 7 22.5 14.5t18.5 15.5l-110 138q-44 -30 -57 -51q-14 -25 -14 -50q0 -30 24 -55t61 -25q15 0 28 2.5t27 10.5z" />
    <glyph glyph-name="quotesingle" unicode="'" horiz-adv-x="270" 
d="M191 621v-76q0 -27 -7.5 -47.5t-21.5 -37.5q-27 -33 -83 -42v37q39 12 56 41q4 12 4 30h-62v95h114z" />
    <glyph glyph-name="parenleft" unicode="(" horiz-adv-x="410" 
d="M149 492q29 61 85 129h79l-22 -36q-47 -75 -65 -157q-12 -56 -12 -119q0 -98 33 -182q9 -25 26 -56.5t41 -70.5h-77l-26 32q-13 14 -26.5 35t-26.5 50q-52 101 -52 198q0 91 43 177z" />
    <glyph glyph-name="parenright" unicode=")" horiz-adv-x="365" 
d="M248 129q-30 -60 -84 -129h-78l22 36q45 77 63 157q12 55 12 119q0 98 -33 182q-9 25 -25 56.5t-41 70.5h76l26 -32q24 -27 53 -85q50 -100 50 -198q0 -45 -10.5 -89t-30.5 -88z" />
    <glyph glyph-name="asterisk" unicode="*" horiz-adv-x="343" 
d="M79 569l67 -20v72h57v-72l67 20l15 -44l-69 -20l46 -60l-42 -27l-45 56l-47 -56l-41 27l45 60l-69 20l16 44v0z" />
    <glyph glyph-name="plus" unicode="+" horiz-adv-x="564" 
d="M73 268v105h150v164h96v-164h149v-105h-149v-164h-96v164h-150v0z" />
    <glyph glyph-name="comma" unicode="," horiz-adv-x="270" 
d="M200 136v-82q0 -29 -8 -51.5t-24 -40.5q-28 -35 -89 -46v41q43 11 61 45q4 11 4 32h-67v102h123z" />
    <glyph glyph-name="hyphen" unicode="-" horiz-adv-x="415" 
d="M105 373h243v-105h-243v105v0z" />
    <glyph glyph-name="period" unicode="." horiz-adv-x="300" 
d="M80 125h128v-125h-128v125v0z" />
    <glyph glyph-name="slash" unicode="/" horiz-adv-x="514" 
d="M383 621h52l-312 -621h-56l316 621v0z" />
    <glyph glyph-name="zero" unicode="0" horiz-adv-x="635" 
d="M491 540q51 -81 51 -230t-51 -230q-50 -81 -175 -81q-124 0 -174 81q-51 81 -51 230t51 230q49 81 174 81t175 -81zM241 151q18 -55 75 -55q58 0 76 55q17 56 17 159q0 107 -17 161q-19 53 -76 53q-56 0 -75 -53q-19 -55 -19 -161q0 -52 5 -92t14 -67z" />
    <glyph glyph-name="one" unicode="1" horiz-adv-x="390" 
d="M283 621v-50v-571h-112v367v9v52v31v15l-17 -16l-87 66l108 97h46h62z" />
    <glyph glyph-name="two" unicode="2" horiz-adv-x="545" 
d="M310 187q-44 -32 -58 -46q-8 -8 -15 -16.5t-12 -18.5h196l2 -107h-342q0 34 7 64.5t18 57.5q22 61 115 131q39 30 64 51.5t37 34.5q36 40 34 89q0 37 -22 65q-2 2 -3 3.5t-3 3.5h-1q-1 1 -1 2h-1v1h-1l-1 1l-2 2h-1q-13 9 -27 11.5t-26 1.5q-2 -1 -5.5 -1t-7.5 -1
q-8 -2 -13 -4h-1q-4 -1 -10 -5q-15 -8 -31 -25l-86 61q46 78 155 78q92 0 148 -54q29 -28 43 -63.5t15 -80.5q1 -69 -36 -123q-14 -17 -34 -36.5t-49 -41.5l-45 -35v0z" />
    <glyph glyph-name="three" unicode="3" horiz-adv-x="545" 
d="M422 307q48 -42 48 -115q0 -74 -55 -134q-56 -59 -164 -59q-114 0 -168 61l94 66q24 -30 74 -30q36 0 63 24t27 69q0 59 -50 79q-21 8 -56 11v87q17 1 29 3.5t21 6.5q41 17 41 71q0 34 -22 56q-20 21 -59 21q-44 0 -64 -26q-2 -4 -4.5 -7t-4.5 -7l-91 62q6 8 13.5 16
t15.5 15q24 21 58 33q17 6 37.5 8.5t44.5 2.5q89 0 146 -45q54 -44 54 -120q0 -53 -33 -89q-18 -22 -43 -32q19 0 48 -28z" />
    <glyph glyph-name="four" unicode="4" 
d="M319 621h137v-279v-112v-96v-76v-59h-119v86v49v24h-246v83zM337 230v269l-155 -269h155z" />
    <glyph glyph-name="five" unicode="5" horiz-adv-x="600" 
d="M449 367q57 -51 57 -149q0 -83 -54 -152q-56 -66 -164 -66q-87 0 -143 47q-4 2 -7 5l102 58q19 -13 48 -13q23 0 40 8.5t29 23.5q23 32 23 80t-22 79q-20 32 -69 32q-20 0 -38 -5q-22 -8 -34 -27h-118v333h45h65h226v-103h-147h-57h-22v-133l1 1q2 0 3.5 1t3.5 2
q11 7 20 12t15 8q27 9 65 9q75 0 132 -51z" />
    <glyph glyph-name="six" unicode="6" horiz-adv-x="601" 
d="M327 405q81 0 134 -55t53 -139q0 -85 -52 -147q-51 -65 -158 -65q-117 0 -171 95q-43 73 -43 191q0 35 1.5 62.5t3.5 49.5q12 78 42 127q25 44 69 70q42 27 101 27q85 0 136 -43q5 -3 8 -6.5t6 -6.5l-99 -57q-18 16 -48 16q-59 0 -84 -64q-6 -18 -11 -44.5t-7 -61.5
q23 28 52 38q32 13 67 13zM368 125q24 30 24 77q0 53 -27 80q-25 28 -65 28q-31 0 -53 -18q-36 -27 -36 -87q0 -47 26 -79q27 -30 68 -30t63 29z" />
    <glyph glyph-name="seven" unicode="7" horiz-adv-x="584" 
d="M88 621h419v-97l-264 -525h-117l143 282h-86v68h121l81 161h-3h-149h-146l1 111v0z" />
    <glyph glyph-name="eight" unicode="8" horiz-adv-x="577" 
d="M108 274q23 42 64 62q-42 29 -54 63t-12 63q0 66 47 112q49 47 134 47q86 0 135 -47q47 -46 47 -112q0 -29 -12 -63q-12 -33 -54 -58q21 -14 37 -30t27 -37q22 -40 22 -92q0 -73 -54 -129q-54 -54 -152 -54t-147 54q-50 53 -50 129q0 52 22 92zM227 122q21 -25 60 -25
q41 0 62 25q22 23 22 69t-22 69q-23 24 -62 24q-38 0 -60 -24q-23 -23 -23 -69t23 -69zM234 396q18 -21 53 -21q36 0 54 21q19 20 19 53q0 37 -19 56q-18 20 -54 20q-35 0 -53 -20q-19 -19 -19 -56q0 -33 19 -53z" />
    <glyph glyph-name="nine" unicode="9" horiz-adv-x="584" 
d="M474 500q15 -34 22 -79t7 -102q0 -110 -28 -181q-53 -139 -192 -139q-66 0 -121 40q-4 3 -7 6t-7 6l97 57q16 -12 43 -12q57 0 81 64q13 36 16 104q-16 -19 -34 -31q-34 -20 -81 -20q-73 0 -126 50q-55 49 -55 142q0 98 55 156q55 60 144 60q135 0 186 -121zM341 323
q40 27 40 89q0 51 -24 80q-25 31 -64 31q-32 0 -51 -18q-34 -25 -34 -89q0 -53 21 -80q22 -26 66 -26q26 0 46 13z" />
    <glyph glyph-name="colon" unicode=":" horiz-adv-x="255" 
d="M76 468h96v-95h-96v95v0zM76 230h96v-95h-96v95v0z" />
    <glyph glyph-name="semicolon" unicode=";" horiz-adv-x="260" 
d="M85 468h97v-96h-97v96zM85 58q33 9 45 33q9 15 10 42h-55v96h98v-83q0 -11 -1 -22.5t-4 -22.5q-6 -23 -22 -41q-16 -17 -39 -28q-23 -9 -32 -9v35z" />
    <glyph glyph-name="less" unicode="&#x3c;" horiz-adv-x="402" 
d="M63 370l273 172v-108l-194 -114l194 -114v-108l-273 172v100v0z" />
    <glyph glyph-name="equal" unicode="=" horiz-adv-x="393" 
d="M77 442h243v-97h-243v97zM77 193v97h243v-97h-243z" />
    <glyph glyph-name="greater" unicode="&#x3e;" horiz-adv-x="376" 
d="M322 270l-258 -172v108l185 114l-185 114v108l258 -173v-99v0z" />
    <glyph glyph-name="question" unicode="?" horiz-adv-x="535" 
d="M202 91h102v-91h-102v91zM379 575q53 -47 53 -137q0 -27 -5.5 -50.5t-17.5 -42.5q-7 -11 -20 -26t-33 -33l-24 -23q-11 -11 -18 -21.5t-10 -23.5q-4 -16 -4 -51h-97q1 70 11 99q9 27 47 64l27 25q7 5 11.5 11.5t8.5 12.5q14 24 14 52q0 31 -15 60q-14 26 -58 26
q-41 0 -59 -33q-4 -10 -6 -14l-90 61q18 35 47 57q42 33 103 33q80 0 135 -46z" />
    <glyph glyph-name="at" unicode="@" horiz-adv-x="800" 
d="M652 85q-51 -40 -112 -65q-30 -11 -62 -17t-65 -6q-156 0 -240 104q-71 86 -71 203q0 131 88 222q93 96 236 96q120 0 196 -66q81 -69 81 -184v-8t-1 -9q-2 -34 -10 -67q-7 -28 -21.5 -58.5t-40.5 -51.5q-1 -1 -12 -8t-26.5 -13t-34 -7t-34.5 10q-8 5 -11.5 9.5t-5.5 9.5
q-3 5 -3 11q-2 -12 -13 -22q-10 -8 -30 -14.5t-57 -6.5q-75 0 -117 43t-42 137v4q0 15 1.5 29t3.5 28q4 18 13.5 38t27.5 37t46.5 28t70.5 11q26 -2 56.5 -13.5t52.5 -40.5q10 -16 16.5 -37t8.5 -50q1 -3 1 -6.5v-6.5v-9q0 -38 2.5 -62t7 -37.5t9.5 -18.5t10 -5
q29 0 44 24.5t22 54.5q8 34 9 79v2q0 109 -88 158q-55 31 -125 31q-126 0 -203 -83q-70 -76 -70 -180q0 -119 81 -186q73 -60 176 -60q35 0 68 7t65 20q14 8 28.5 16t30.5 19zM453 243q13 29 13 88q0 60 -13 90q-12 28 -52 28q-20 0 -33.5 -7t-18.5 -21q-7 -16 -10.5 -38
t-3.5 -52q0 -57 14 -88q5 -16 18.5 -23.5t33.5 -7.5q40 0 52 31z" />
    <glyph glyph-name="A" unicode="A" horiz-adv-x="740" 
d="M444 621l218 -621h-141l-40 127l-13 40h-201l-25 -77l-29 -90h-139l97 270l125 351h148zM300 270h135l-15 48l-52 161l-48 -147l-3 -10z" />
    <glyph glyph-name="B" unicode="B" horiz-adv-x="700" 
d="M608 187q0 -56 -27 -99q-8 -15 -18.5 -26.5t-24.5 -22.5q-29 -22 -68 -31q-20 -4 -41 -6.5t-44 -2.5h-273v32v75v167v67v281h56h65h97q112 -2 158 -66q27 -41 27 -95q0 -56 -28 -92q-9 -10 -18 -17q18 -3 36 -10q15 -6 32.5 -17t33.5 -28q4 -5 7 -9t6 -9q4 -6 7.5 -12.5
t5.5 -12.5q11 -28 11 -64v-2zM233 375h58q7 0 18.5 1t23.5 3.5t23.5 6.5t18.5 10q19 15 19 50q0 45 -32 58q-26 10 -72 10h-57v-3v-26v-110zM441 117q39 21 39 78q0 49 -38 67q-22 11 -60 11h-124h-25v-167h47h100q39 0 61 11z" />
    <glyph glyph-name="C" unicode="C" horiz-adv-x="674" 
d="M465 149q0 1 2 3l96 -63q-12 -16 -26 -29q-66 -60 -168 -60q-126 0 -200 82q-73 82 -73 226q0 155 83 240q72 73 183 73q130 0 201 -78l-103 -60q-33 33 -93 33q-66 0 -106 -55q-38 -56 -38 -155q0 -98 41 -150q40 -49 102 -49q63 0 99 42z" />
    <glyph glyph-name="D" unicode="D" horiz-adv-x="687" 
d="M577 429q5 -28 8 -53.5t3 -50.5q0 -124 -49 -209q-29 -48 -68.5 -76.5t-93.5 -36.5q-8 -1 -27 -2t-55 -1h-167v621h155q66 0 102 -6t52 -11q59 -23 95 -75q33 -46 45 -100zM438 198q11 25 15.5 54.5t4.5 64.5q0 95 -30 146q-4 6 -8 11t-9 10q-13 10 -29 16t-30.5 9
t-25.5 3.5t-12 0.5h-61v-404h51q24 0 42 5t31 11.5t20.5 12.5t10.5 9q9 10 16.5 23t13.5 28z" />
    <glyph glyph-name="E" unicode="E" horiz-adv-x="599" 
d="M258 272v-160h226v-112h-366v620h382v-110h-242v-131h150v-107h-150v0z" />
    <glyph glyph-name="F" unicode="F" 
d="M255 112v-112h-126v620h342v-110h-216v-131h133v-107h-133v-102v-58v0z" />
    <glyph glyph-name="G" unicode="G" horiz-adv-x="720" 
d="M405 3q-26 -3 -56 -3q-110 1 -182 81q-76 80 -76 223q0 142 77 230q77 86 204 86q110 0 178 -57q8 -7 15 -14t13 -15q-10 -6 -23 -13.5t-26.5 -15t-26.5 -14.5t-23 -13q-8 8 -17.5 15t-20.5 12q-29 13 -67 13q-69 0 -114 -53q-45 -52 -45 -162q0 -109 48 -154t111 -45h14
q14 1 34 7t39 20t34.5 38.5t20.5 63.5h-128v98h2l-1 1h251q1 -10 1 -31.5t-4 -49t-12.5 -58.5t-24.5 -61.5t-42 -57t-63 -44.5q-24 -11 -47.5 -17.5t-42.5 -9.5z" />
    <glyph glyph-name="H" unicode="H" horiz-adv-x="718" 
d="M107 0v620h129v-236h244v236h129v-620h-129v277h-244v-277h-129v0z" />
    <glyph glyph-name="I" unicode="I" horiz-adv-x="355" 
d="M237 620v-620h-126v620h126v0z" />
    <glyph glyph-name="J" unicode="J" 
d="M449 621v-422q0 -80 -26 -123q-45 -76 -162 -76q-116 0 -157 62l-3 6l102 58q16 -23 54 -23q42 0 56 32q4 9 6.5 24t2.5 38v424h127z" />
    <glyph glyph-name="K" unicode="K" horiz-adv-x="613" 
d="M299 350l22 -35l197 -316h-143l-151 251v-42v-28v-180h-124v620h124v-178l166 178h161l-256 -264l4 -6v0z" />
    <glyph glyph-name="L" unicode="L" horiz-adv-x="500" 
d="M396 112v-112h-284v620h135v-508h149v0z" />
    <glyph glyph-name="M" unicode="M" horiz-adv-x="855" 
d="M658 621h75v-621h-139v151v213l-117 -228h-107l-114 222v-127v-231h-139v621h83h46h10v0h1l169 -320l167 320h1h64v0z" />
    <glyph glyph-name="N" unicode="N" horiz-adv-x="715" 
d="M472 621h141v-622h-141l-236 379v-49v-330h-142v622h142l236 -381v381v0z" />
    <glyph glyph-name="O" unicode="O" horiz-adv-x="795" 
d="M614 68q-74 -69 -208 -69q-138 0 -208 69q-97 84 -97 242q0 163 97 242q70 69 208 69q134 0 208 -69q95 -79 95 -242q0 -159 -95 -242zM530 157q47 55 47 153t-47 153q-45 54 -124 54t-127 -54q-46 -53 -46 -153t46 -153q49 -54 127 -54t124 54z" />
    <glyph glyph-name="P" unicode="P" horiz-adv-x="610" 
d="M472 573q57 -48 57 -149q0 -111 -57 -155q-56 -46 -162 -46h-57v-63v-160h-136v620h98h38h65q96 0 154 -47zM369 353q25 21 25 70q0 50 -25 69q-26 21 -73 21h-43v-183h43q49 0 73 23z" />
    <glyph glyph-name="Q" unicode="Q" horiz-adv-x="830" 
d="M635 82q3 -6 12 -17t22 -24.5t31 -28.5t39 -27l-103 -57q-26 16 -53.5 38.5t-47.5 53.5q-56 -21 -132 -21q-138 0 -209 68q-97 84 -97 242q0 161 97 243q71 68 209 68q137 0 209 -68q97 -82 97 -243q0 -142 -78 -223l1 -1q1 -1 1 -1.5t2 -1.5zM351 110q38 -8 66.5 -6.5
t51.5 10.5q-4 6 -16 23t-29 36t-38.5 33.5t-43.5 14.5q-38 0 -61.5 -7t-31.5 -12l5.5 -11.5t17.5 -26.5t31.5 -30.5t47.5 -23.5zM568 239q7 29 7 70q0 101 -46 153q-47 54 -126 54t-126 -53q-48 -56 -48 -154v-2q7 3 21.5 7t34.5 7t44.5 3t50.5 -6t52 -20t49 -31.5t41.5 -37
t29.5 -36.5q7 14 10.5 26t5.5 20z" />
    <glyph glyph-name="R" unicode="R" horiz-adv-x="650" 
d="M497 269q-36 -28 -94 -39l156 -231h-154l-145 224v-63v-160h-146v620h105h41h70q105 0 167 -47t62 -149q0 -111 -62 -155zM260 330h47q52 0 79 23q27 21 27 70t-27 69q-29 21 -79 21h-47v-183z" />
    <glyph glyph-name="S" unicode="S" horiz-adv-x="678" 
d="M577 218q1 -8 0.5 -15.5t-0.5 -15.5q-9 -82 -73 -134q-65 -53 -179 -53h-6q-30 0 -55 3.5t-47 10.5q-38 12 -59 31.5t-32 37.5q-12 21 -15 45l99 57q4 -25 18 -43q12 -17 35 -30t64 -13q23 0 41 2.5t32 7.5q55 20 58 68q3 29 -23 46q-25 15 -78 27l-54 12q-5 1 -10.5 2
t-12.5 3q-8 2 -17.5 5t-18.5 5q-41 13 -65 33t-37 40t-17 38t-4 28v10t1 10q6 81 68 131q62 53 175 53q46 -1 85 -13t70 -37q8 -6 15 -12.5t12 -14.5l-103 -60q-5 5 -11 10t-14 10q-14 8 -32 11t-40 3q-23 0 -43.5 -4.5t-34.5 -14.5q-31 -19 -35 -53q-2 -33 26 -47
q18 -11 76 -24l64 -16q55 -13 89 -32t53 -39t26 -38.5t9 -30.5z" />
    <glyph glyph-name="T" unicode="T" horiz-adv-x="590" 
d="M459 620h33v-110h-35h-79v0v-510h-147v498v12h-113v110h113h1h146h81v0z" />
    <glyph glyph-name="U" unicode="U" horiz-adv-x="745" 
d="M118 620h138v-372q0 -62 15 -90q23 -51 108 -51q81 0 106 51q15 28 15 90v372h138v-372q0 -98 -33 -150q-57 -99 -226 -99t-229 99q-32 55 -32 150v372z" />
    <glyph glyph-name="V" unicode="V" horiz-adv-x="860" 
d="M355 -1l-247 622h159l46 -128v0l68 -190v0l58 -162l56 148l3 9v0l85 234l32 89h158l-110 -269l-142 -353h-166v0z" />
    <glyph glyph-name="W" unicode="W" horiz-adv-x="1165" 
d="M948 621h144l-101 -269l-130 -353h-152l-125 343l-127 -343h-152l-227 622h146l43 -128v0l62 -190l53 -162l50 148l4 9v0l78 234h143l13 -39v0l63 -190l54 -162l50 148l3 9v0l78 234l30 89v0z" />
    <glyph glyph-name="X" unicode="X" horiz-adv-x="805" 
d="M265 0h-166l219 316l-208 304h170l120 -202l126 202h164l-208 -298l220 -322h-172l-130 212l-135 -212v0z" />
    <glyph glyph-name="Y" unicode="Y" horiz-adv-x="730" 
d="M505 620h147l-208 -387v-233h-129v233l-215 387h153l128 -270l124 270v0z" />
    <glyph glyph-name="Z" unicode="Z" horiz-adv-x="665" 
d="M83 110l320 400h-312v110h474v-103l-323 -407h324v-110h-483v110v0z" />
    <glyph glyph-name="bracketleft" unicode="[" horiz-adv-x="377" 
d="M80 621h225v-68h-104v-483h104v-70h-225v621v0z" />
    <glyph glyph-name="backslash" unicode="\" horiz-adv-x="505" 
d="M129 621l319 -621h-56l-315 621h52v0z" />
    <glyph glyph-name="bracketright" unicode="]" horiz-adv-x="385" 
d="M70 70h108v485h-108v66h233v-621h-233v70v0z" />
    <glyph glyph-name="asciicircum" unicode="^" horiz-adv-x="425" 
d="M262 621l106 -147l-70 -27l-75 109l-81 -115l-68 30l108 150h80v0z" />
    <glyph glyph-name="underscore" unicode="_" horiz-adv-x="705" 
d="M79 0v84h554v-84h-554v0z" />
    <glyph glyph-name="grave" unicode="`" horiz-adv-x="320" 
d="M251 500h-78l-116 121h121l73 -121v0z" />
    <glyph glyph-name="a" unicode="a" horiz-adv-x="739" 
d="M662 0h-141l-40 127l-13 40h-201l-25 -77l-29 -90h-139l97 270l125 351h148zM435 270l-15 48l-52 161l-48 -147l-3 -10l-17 -52h135z" />
    <glyph glyph-name="b" unicode="b" horiz-adv-x="701" 
d="M608 187q0 -56 -27 -99q-8 -15 -18.5 -26.5t-24.5 -22.5q-29 -22 -68 -31q-20 -4 -41 -6.5t-44 -2.5h-273v32v75v167v67v281h56h65h97q112 -2 158 -66q27 -41 27 -95q0 -56 -28 -92q-9 -10 -18 -17q18 -3 36 -10q15 -6 32.5 -17t33.5 -28q4 -5 7 -9t6 -9q4 -6 7.5 -12.5
t5.5 -12.5q11 -28 11 -64v-2zM233 375h58q7 0 18.5 1t23.5 3.5t23.5 6.5t18.5 10q19 15 19 50q0 45 -32 58q-26 10 -72 10h-57v-3v-26v-110zM441 117q39 21 39 78q0 49 -38 67q-22 11 -60 11h-124h-25v-167h47h100q39 0 61 11z" />
    <glyph glyph-name="c" unicode="c" horiz-adv-x="675" 
d="M465 149q0 1 2 3l96 -63q-12 -16 -26 -29q-66 -60 -168 -60q-126 0 -200 82q-73 82 -73 226q0 155 83 240q72 73 183 73q130 0 201 -78l-103 -60q-33 33 -93 33q-66 0 -106 -55q-38 -56 -38 -155q0 -98 41 -150q40 -49 102 -49q63 0 99 42z" />
    <glyph glyph-name="d" unicode="d" horiz-adv-x="687" 
d="M577 429q5 -28 8 -53.5t3 -50.5q0 -124 -49 -209q-29 -48 -68.5 -76.5t-93.5 -36.5q-8 -1 -27 -2t-55 -1h-167v621h155q66 0 102 -6t52 -11q59 -23 95 -75q33 -46 45 -100zM438 198q11 25 15.5 54.5t4.5 64.5q0 95 -30 146q-4 6 -8 11t-9 10q-13 10 -29 16t-30.5 9
t-25.5 3.5t-12 0.5h-61v-404h51q24 0 42 5t31 11.5t20.5 12.5t10.5 9q9 10 16.5 23t13.5 28z" />
    <glyph glyph-name="e" unicode="e" horiz-adv-x="599" 
d="M258 112h226v-112h-366v620h382v-110h-242v-131h150v-107h-150v-160z" />
    <glyph glyph-name="f" unicode="f" horiz-adv-x="540" 
d="M245 0h-126v620h342v-110h-216v-131h133v-107h-133v-102v-58v-112z" />
    <glyph glyph-name="g" unicode="g" horiz-adv-x="720" 
d="M405 3q-26 -3 -56 -3q-110 1 -182 81q-76 80 -76 223q0 142 77 230q77 86 204 86q110 0 178 -57q8 -7 15 -14t13 -15q-10 -6 -23 -13.5t-26.5 -15t-26.5 -14.5t-23 -13q-8 8 -17.5 15t-20.5 12q-29 13 -67 13q-69 0 -114 -53q-45 -52 -45 -162q0 -109 48 -154t111 -45h14
q14 1 34 7t39 20t34.5 38.5t20.5 63.5h-128v98h2l-1 1h251q1 -10 1 -31.5t-4 -49t-12.5 -58.5t-24.5 -61.5t-42 -57t-63 -44.5q-24 -11 -47.5 -17.5t-42.5 -9.5z" />
    <glyph glyph-name="h" unicode="h" horiz-adv-x="718" 
d="M107 0v620h129v-236h244v236h129v-620h-129v277h-244v-277h-129z" />
    <glyph glyph-name="i" unicode="i" horiz-adv-x="355" 
d="M237 0h-126v620h126v-620z" />
    <glyph glyph-name="j" unicode="j" horiz-adv-x="552" 
d="M449 621v-422q0 -80 -26 -123q-45 -76 -162 -76q-116 0 -157 62l-3 6l102 58q16 -23 54 -23q42 0 56 32q4 9 6.5 24t2.5 38v424h127z" />
    <glyph glyph-name="k" unicode="k" horiz-adv-x="613" 
d="M321 315l197 -316h-143l-151 251v-42v-28v-180h-124v620h124v-178l166 178h161l-256 -264l4 -6z" />
    <glyph glyph-name="l" unicode="l" horiz-adv-x="501" 
d="M396 0h-284v620h135v-508h149v-112z" />
    <glyph glyph-name="m" unicode="m" horiz-adv-x="855" 
d="M733 621v-621h-139v151v213l-117 -228h-107l-114 222v-127v-231h-139v621h83h46h10v0h1l169 -320l167 320h1h64h75z" />
    <glyph glyph-name="n" unicode="n" horiz-adv-x="715" 
d="M613 621v-622h-141l-236 379v-49v-330h-142v622h142l236 -381v381h141z" />
    <glyph glyph-name="o" unicode="o" horiz-adv-x="795" 
d="M614 68q-74 -69 -208 -69q-138 0 -208 69q-97 84 -97 242q0 163 97 242q70 69 208 69q134 0 208 -69q95 -79 95 -242q0 -159 -95 -242zM530 157q47 55 47 153t-47 153q-45 54 -124 54t-127 -54q-46 -53 -46 -153t46 -153q49 -54 127 -54t124 54z" />
    <glyph glyph-name="p" unicode="p" horiz-adv-x="610" 
d="M472 573q57 -48 57 -149q0 -111 -57 -155q-56 -46 -162 -46h-57v-63v-160h-136v620h98h38h65q96 0 154 -47zM369 353q25 21 25 70q0 50 -25 69q-26 21 -73 21h-43v-183h43q49 0 73 23z" />
    <glyph glyph-name="q" unicode="q" horiz-adv-x="829" 
d="M635 82q3 -6 12 -17t22 -24.5t31 -28.5t39 -27l-103 -57q-26 16 -53.5 38.5t-47.5 53.5q-56 -21 -132 -21q-138 0 -209 68q-97 84 -97 242q0 161 97 243q71 68 209 68q137 0 209 -68q97 -82 97 -243q0 -142 -78 -223l1 -1q1 -1 1 -1.5t2 -1.5zM351 110q38 -8 66.5 -6.5
t51.5 10.5q-4 6 -16 23t-29 36t-38.5 33.5t-43.5 14.5q-38 0 -61.5 -7t-31.5 -12l5.5 -11.5t17.5 -26.5t31.5 -30.5t47.5 -23.5zM568 239q7 29 7 70q0 101 -46 153q-47 54 -126 54t-126 -53q-48 -56 -48 -154v-2q7 3 21.5 7t34.5 7t44.5 3t50.5 -6t52 -20t49 -31.5t41.5 -37
t29.5 -36.5q7 14 10.5 26t5.5 20z" />
    <glyph glyph-name="r" unicode="r" horiz-adv-x="651" 
d="M497 269q-36 -28 -94 -39l156 -231h-154l-145 224v-63v-160h-146v620h105h41h70q105 0 167 -47t62 -149q0 -111 -62 -155zM260 330h47q52 0 79 23q27 21 27 70t-27 69q-29 21 -79 21h-47v-183z" />
    <glyph glyph-name="s" unicode="s" horiz-adv-x="678" 
d="M577 218q1 -8 0.5 -15.5t-0.5 -15.5q-9 -82 -73 -134q-65 -53 -179 -53h-6q-30 0 -55 3.5t-47 10.5q-38 12 -59 31.5t-32 37.5q-12 21 -15 45l99 57q4 -25 18 -43q12 -17 35 -30t64 -13q23 0 41 2.5t32 7.5q55 20 58 68q3 29 -23 46q-25 15 -78 27l-54 12q-5 1 -10.5 2
t-12.5 3q-8 2 -17.5 5t-18.5 5q-41 13 -65 33t-37 40t-17 38t-4 28v10t1 10q6 81 68 131q62 53 175 53q46 -1 85 -13t70 -37q8 -6 15 -12.5t12 -14.5l-103 -60q-5 5 -11 10t-14 10q-14 8 -32 11t-40 3q-23 0 -43.5 -4.5t-34.5 -14.5q-31 -19 -35 -53q-2 -33 26 -47
q18 -11 76 -24l64 -16q55 -13 89 -32t53 -39t26 -38.5t9 -30.5z" />
    <glyph glyph-name="t" unicode="t" horiz-adv-x="590" 
d="M492 620v-110h-35h-79v0v-510h-147v498v12h-113v110h113h1h146h81h33z" />
    <glyph glyph-name="u" unicode="u" horiz-adv-x="745" 
d="M118 620h138v-372q0 -62 15 -90q23 -51 108 -51q81 0 106 51q15 28 15 90v372h138v-372q0 -98 -33 -150q-57 -99 -226 -99t-229 99q-32 55 -32 150v372z" />
    <glyph glyph-name="v" unicode="v" horiz-adv-x="858" 
d="M108 621h159l46 -128v0l68 -190v0l58 -162l56 148l3 9v0l85 234l32 89h158l-110 -269l-142 -353h-166z" />
    <glyph glyph-name="w" unicode="w" horiz-adv-x="1165" 
d="M1092 621l-101 -269l-130 -353h-152l-125 343l-127 -343h-152l-227 622h146l43 -128v0l62 -190l53 -162l50 148l4 9v0l78 234h143l13 -39v0l63 -190l54 -162l50 148l3 9v0l78 234l30 89h144z" />
    <glyph glyph-name="x" unicode="x" horiz-adv-x="804" 
d="M265 0h-166l219 316l-208 304h170l120 -202l126 202h164l-208 -298l220 -322h-172l-130 212z" />
    <glyph glyph-name="y" unicode="y" horiz-adv-x="731" 
d="M505 620h147l-208 -387v-233h-129v233l-215 387h153l128 -270z" />
    <glyph glyph-name="z" unicode="z" horiz-adv-x="665" 
d="M83 110l320 400h-312v110h474v-103l-323 -407h324v-110h-483v110z" />
    <glyph glyph-name="braceleft" unicode="{" horiz-adv-x="345" 
d="M135 208q0 40 -24 63q-13 12 -42 20v40q31 11 43 24q23 20 23 68v87q0 17 6 35q8 29 31 50q19 17 49 22q9 2 21 3t28 1v-52q-26 -6 -35 -15q-16 -16 -16 -53v-74q0 -37 -9 -59q-17 -37 -62 -58q41 -18 56 -42q15 -23 15 -65v-82q0 -34 18 -52q10 -10 33 -17v-52l-22 1
q-47 2 -79 28q-34 26 -34 77v102z" />
    <glyph glyph-name="bar" unicode="|" horiz-adv-x="232" 
d="M153 621v-621h-74v621h74v0z" />
    <glyph glyph-name="braceright" unicode="}" horiz-adv-x="325" 
d="M74 0v52q22 7 30 18q16 16 16 51v82q0 44 16 68q17 24 51 39q-20 10 -32.5 22t-19.5 25q-15 27 -15 70v74q0 36 -10 49t-36 19v52q14 0 25.5 -1t19.5 -3q26 -4 45 -22q19 -16 27 -41q7 -24 7 -44v-87q0 -46 20 -68q5 -7 15.5 -12.5t25.5 -11.5v-40q-25 -7 -38 -19
q-11 -12 -17 -28t-6 -36v-102q0 -51 -30 -76q-29 -27 -73 -29z" />
    <glyph glyph-name="asciitilde" unicode="~" horiz-adv-x="581" 
d="M507 358q-9 -39 -30 -67q-30 -45 -82 -45q-6 0 -11.5 0.5t-11.5 0.5q-11 2 -24 6t-27 9l-77 28q-5 1 -11.5 3t-14.5 4q-8 0 -13 0.5t-10 0.5q-9 0 -19 -3t-18 -11q-6 -7 -12 -16.5t-8 -22.5l-56 41q2 5 4 11.5t5 11.5q5 14 12.5 26.5t15.5 20.5q8 10 17.5 17.5t18.5 10.5
q10 5 20 6.5t19 1.5h10.5t13.5 -1q11 -2 21.5 -5t20.5 -5l84 -30q8 -4 15.5 -5.5t13.5 -3.5q7 -2 13 -2h10q25 0 38 16q8 9 12.5 19.5t9.5 21.5z" />
    <glyph glyph-name="bullet" unicode="&#x2022;" horiz-adv-x="392" 
d="M203 403q33 0 56.5 -23.5t23.5 -56.5t-23.5 -56.5t-56.5 -23.5t-56.5 23.5t-23.5 56.5t23.5 56.5t56.5 23.5z" />
  </font>
</defs>
</svg>
